<?xml version="1.0" encoding="UTF-8"?>
<svg version="1.1" xmlns="http://www.w3.org/2000/svg" width="500" height="500">
<path d="M0 0 C1.46923649 1.22320868 2.88031148 2.51553477 4.28125 3.81640625 C4.961875 3.01203125 5.6425 2.20765625 6.34375 1.37890625 C9.90912922 -1.73131817 11.57162583 -2.26341789 16.28125 -2.18359375 C19.82303749 -1.02866305 23.17756888 0.24627671 25.37304688 3.36962891 C26.7049592 6.95791529 26.54625342 10.4901651 26.51171875 14.265625 C26.51126053 15.0788472 26.51080231 15.8920694 26.5103302 16.72993469 C26.50731544 18.44375066 26.49945238 20.15756407 26.48706055 21.87133789 C26.46874366 24.50481783 26.46655137 27.13794723 26.46679688 29.77148438 C26.46188373 31.43620098 26.4560563 33.10091519 26.44921875 34.765625 C26.44810593 35.55724533 26.4469931 36.34886566 26.44584656 37.16447449 C26.39731827 42.70033798 26.39731827 42.70033798 25.28125 43.81640625 C23.61695949 43.91464562 21.94843069 43.94614256 20.28125 43.94140625 C18.92 43.94527344 18.92 43.94527344 17.53125 43.94921875 C15.28125 43.81640625 15.28125 43.81640625 14.28125 42.81640625 C14.12236908 40.52651844 14.02986927 38.23197184 13.96484375 35.9375 C13.94406265 35.25083755 13.92328156 34.56417511 13.90187073 33.85670471 C13.83630857 31.6558769 13.77745985 29.4549265 13.71875 27.25390625 C13.67557108 25.76496111 13.631957 24.27602852 13.58789062 22.78710938 C13.4806207 19.13034072 13.37937228 15.47343307 13.28125 11.81640625 C9.80977158 11.06683468 9.80977158 11.06683468 6.28125 10.81640625 C6.24366577 12.26261353 6.24366577 12.26261353 6.20532227 13.73803711 C6.11139694 17.30328467 6.01114061 20.86833058 5.90893555 24.43334961 C5.86553015 25.97854914 5.82385929 27.52379839 5.78393555 29.0690918 C5.72636801 31.28579721 5.66263576 33.50225105 5.59765625 35.71875 C5.57258751 36.76094948 5.57258751 36.76094948 5.54701233 37.82420349 C5.39512171 42.70253454 5.39512171 42.70253454 4.28125 43.81640625 C2.61695949 43.91464562 0.94843069 43.94614256 -0.71875 43.94140625 C-2.08 43.94527344 -2.08 43.94527344 -3.46875 43.94921875 C-5.71875 43.81640625 -5.71875 43.81640625 -6.71875 42.81640625 C-6.86531303 40.62268248 -6.94625532 38.42451978 -7 36.2265625 C-7.02761414 35.23697792 -7.02761414 35.23697792 -7.05578613 34.22740173 C-7.1146949 32.11132955 -7.16743197 29.99517533 -7.21875 27.87890625 C-7.28633447 25.09878452 -7.3600409 22.3189246 -7.4375 19.5390625 C-7.46779297 18.29906494 -7.49808594 17.05906738 -7.52929688 15.78149414 C-7.52105838 12.88739721 -7.52105838 12.88739721 -8.71875 10.81640625 C-10.38486905 10.77368525 -12.05257885 10.77576793 -13.71875 10.81640625 C-15.62588656 12.72354281 -14.94031811 16.12431101 -15 18.66015625 C-15.01840942 19.34444702 -15.03681885 20.02873779 -15.05578613 20.73376465 C-15.11470139 22.92788884 -15.16745184 25.12209151 -15.21875 27.31640625 C-15.28620861 30.20199559 -15.35987613 33.0873245 -15.4375 35.97265625 C-15.48293945 37.90334961 -15.48293945 37.90334961 -15.52929688 39.87304688 C-15.71875 42.81640625 -15.71875 42.81640625 -16.71875 43.81640625 C-18.54990883 43.91491796 -20.38494933 43.94613254 -22.21875 43.94140625 C-23.2190625 43.94398438 -24.219375 43.9465625 -25.25 43.94921875 C-27.71875 43.81640625 -27.71875 43.81640625 -28.71875 42.81640625 C-28.81143999 41.46545643 -28.83622326 40.10973534 -28.83227539 38.75561523 C-28.83219986 37.89479843 -28.83212433 37.03398163 -28.83204651 36.14707947 C-28.82688522 35.21166824 -28.82172394 34.27625702 -28.81640625 33.3125 C-28.8149913 32.35948502 -28.81357635 31.40647003 -28.81211853 30.42457581 C-28.80650152 27.3676546 -28.79394616 24.31080548 -28.78125 21.25390625 C-28.77623719 19.18685001 -28.77167391 17.11979263 -28.76757812 15.05273438 C-28.75652656 9.97393037 -28.73925055 4.89518055 -28.71875 -0.18359375 C-26.37772141 -1.35410804 -24.82522047 -1.38281835 -22.21875 -1.43359375 C-21.02765625 -1.47226563 -21.02765625 -1.47226563 -19.8125 -1.51171875 C-19.1215625 -1.4034375 -18.430625 -1.29515625 -17.71875 -1.18359375 C-17.05875 -0.19359375 -16.39875 0.79640625 -15.71875 1.81640625 C-14.8525 1.10484375 -14.8525 1.10484375 -13.96875 0.37890625 C-9.53736894 -2.69844171 -4.65610436 -3.20636278 0 0 Z " fill="#222E3B" transform="translate(123.71875,139.18359375)"/>
<path d="M0 0 C2.97 0 5.94 0 9 0 C9.0231271 8.19690561 9.04091696 16.39379768 9.05181217 24.59072781 C9.0570402 28.39651577 9.06413638 32.20228148 9.07543945 36.00805664 C9.0862712 39.67792544 9.09227744 43.34777278 9.09487724 47.01765633 C9.09673097 48.42074992 9.1003506 49.82384229 9.10573006 51.2269268 C9.11294419 53.1856968 9.11340809 55.1444882 9.11352539 57.10327148 C9.115746 58.22023911 9.11796661 59.33720673 9.12025452 60.48802185 C9 63 9 63 8 64 C5.66055264 63.71269945 3.3260857 63.38063221 1 63 C1 62.01 1 61.02 1 60 C0.030625 60.639375 -0.93875 61.27875 -1.9375 61.9375 C-6.82091167 64.69426465 -11.59006513 65.59113834 -17.140625 64.62890625 C-22.60431176 62.95017807 -26.05311291 59.85046632 -29 55 C-32.71382849 47.16571947 -32.83670575 38.91717096 -30.27734375 30.671875 C-28.04827044 25.61544897 -24.56992925 22.06429131 -20 19 C-17.30394947 18.10131649 -15.5391753 17.80851417 -12.75 17.75 C-12.02296875 17.72421875 -11.2959375 17.6984375 -10.546875 17.671875 C-8 18 -8 18 -1 21 C-0.67 14.07 -0.34 7.14 0 0 Z M-20 30 C-23.1156805 36.231361 -22.90402691 43.84599315 -20.9375 50.4375 C-19.56219711 53.62716961 -18.89664275 54.0655921 -15.75 56.0625 C-10.63154764 57.34211309 -7.11504016 56.95339592 -2.31958008 54.79174805 C0.23737097 53.2112367 0.23737097 53.2112367 0.56762695 50.45629883 C0.54144287 49.46654053 0.51525879 48.47678223 0.48828125 47.45703125 C0.47216797 46.38388672 0.45605469 45.31074219 0.43945312 44.20507812 C0.39755859 43.08552734 0.35566406 41.96597656 0.3125 40.8125 C0.28994141 39.68134766 0.26738281 38.55019531 0.24414062 37.38476562 C0.18514811 34.58852024 0.1028824 31.79491903 0 29 C-6.96219025 25.22338745 -14.19728217 23.31808249 -20 30 Z " fill="#242D3A" transform="translate(399,119)"/>
<path d="M0 0 C4.06983634 5.34892777 4.43874218 10.96310656 4.41796875 17.5234375 C4.41751053 18.22143463 4.41705231 18.91943176 4.4165802 19.63858032 C4.41358197 21.09907758 4.40576949 22.55957234 4.39331055 24.02001953 C4.37487879 26.26476212 4.3728024 28.50909534 4.37304688 30.75390625 C4.33519161 41.72730839 4.33519161 41.72730839 3.1875 42.875 C1.33462498 42.94726502 -0.52083878 42.9588122 -2.375 42.9375 C-3.38691406 42.92847656 -4.39882813 42.91945312 -5.44140625 42.91015625 C-6.61509766 42.89275391 -6.61509766 42.89275391 -7.8125 42.875 C-9.2889236 39.9221528 -9.03522939 37.19051017 -9.12890625 33.8984375 C-9.14968735 33.21319 -9.17046844 32.5279425 -9.19187927 31.82192993 C-9.25730185 29.63138931 -9.31622554 27.44072811 -9.375 25.25 C-9.41819218 23.7656125 -9.4618067 22.28123722 -9.50585938 20.796875 C-9.61297553 17.15637916 -9.71426362 13.51574749 -9.8125 9.875 C-11.7925 9.875 -13.7725 9.875 -15.8125 9.875 C-18.2367477 16.58602718 -18.25207934 23.23174843 -18.4375 30.3125 C-18.49550781 32.12524414 -18.49550781 32.12524414 -18.5546875 33.97460938 C-18.64849458 36.94125817 -18.73419246 39.90790836 -18.8125 42.875 C-20.62492052 42.90187279 -22.43745233 42.92133715 -24.25 42.9375 C-25.25933594 42.94910156 -26.26867187 42.96070313 -27.30859375 42.97265625 C-29.8125 42.875 -29.8125 42.875 -30.8125 41.875 C-30.91035341 40.52955673 -30.94047985 39.17907437 -30.94189453 37.83007812 C-30.94504669 36.97248901 -30.94819885 36.1148999 -30.95144653 35.23132324 C-30.9494223 34.29904907 -30.94739807 33.3667749 -30.9453125 32.40625 C-30.94626923 31.45560669 -30.94722595 30.50496338 -30.94821167 29.5255127 C-30.94889357 27.51131118 -30.94703862 25.49710748 -30.94287109 23.48291016 C-30.93752298 20.38829645 -30.94281577 17.2938279 -30.94921875 14.19921875 C-30.94855797 12.24739551 -30.94727681 10.29557236 -30.9453125 8.34375 C-30.94733673 7.41147583 -30.94936096 6.47920166 -30.95144653 5.51867676 C-30.94829437 4.66108765 -30.94514221 3.80349854 -30.94189453 2.91992188 C-30.94109894 2.16126831 -30.94030334 1.40261475 -30.93948364 0.62097168 C-30.8125 -1.125 -30.8125 -1.125 -29.8125 -2.125 C-28.12641034 -2.19705511 -26.43749341 -2.20886068 -24.75 -2.1875 C-23.83089844 -2.17847656 -22.91179687 -2.16945312 -21.96484375 -2.16015625 C-21.25457031 -2.14855469 -20.54429687 -2.13695312 -19.8125 -2.125 C-19.1525 -0.805 -18.4925 0.515 -17.8125 1.875 C-16.94625 0.9159375 -16.94625 0.9159375 -16.0625 -0.0625 C-11.19747106 -4.52210986 -5.19921267 -3.92829402 0 0 Z " fill="#212D3A" transform="translate(304.8125,140.125)"/>
<path d="M0 0 C3.3449412 2.93702154 5.30559803 5.50381807 5.96313477 9.97314453 C5.97658936 10.93333496 5.99004395 11.89352539 6.00390625 12.8828125 C6.03033203 13.93597656 6.05675781 14.98914063 6.08398438 16.07421875 C6.09751953 17.16347656 6.11105469 18.25273437 6.125 19.375 C6.15941506 21.54442339 6.20200812 23.71373693 6.25390625 25.8828125 C6.26623291 26.84074707 6.27855957 27.79868164 6.29125977 28.78564453 C6.39903844 31.50350964 6.39903844 31.50350964 8.5625 34.25 C8.5625 36.125 8.5625 36.125 7.5625 38.25 C5.66190352 40.09268357 3.67188377 41.6343018 1.5625 43.25 C-0.93111571 42.04618552 -3.11893083 40.79571278 -5.4375 39.25 C-5.9221875 39.53875 -6.406875 39.8275 -6.90625 40.125 C-12.06008007 42.97942896 -15.54755223 44.00999326 -21.4375 43.25 C-25.18962276 41.23497111 -27.07394095 39.79533858 -29.4375 36.25 C-30.153746 31.02517394 -30.75072538 25.10513384 -27.4375 20.6875 C-21.07850622 15.52081755 -14.45339665 14.72635451 -6.4375 14.25 C-7.0975 12.27 -7.7575 10.29 -8.4375 8.25 C-11.81150578 7.83274322 -11.81150578 7.83274322 -15.4375 8.25 C-17.44614359 10.6226974 -17.44614359 10.6226974 -18.4375 13.25 C-21.4075 12.92 -24.3775 12.59 -27.4375 12.25 C-28.3125 10.1875 -28.3125 10.1875 -28.4375 7.25 C-26.09532029 2.86321259 -22.79992646 0.03916187 -18.1875 -1.75 C-11.75348369 -3.49684085 -5.93011201 -3.01896611 0 0 Z M-16.4375 24.25 C-17.81875018 27.01250036 -17.62829306 29.19731099 -17.4375 32.25 C-15.61546419 34.47966747 -15.61546419 34.47966747 -13 34.5625 C-10.4445035 34.46904846 -10.4445035 34.46904846 -8.8203125 33.0234375 C-7.09264502 30.80772836 -6.95147414 29.3428432 -6.75 26.5625 C-6.68425781 25.75425781 -6.61851563 24.94601563 -6.55078125 24.11328125 C-6.51339844 23.49839844 -6.47601563 22.88351563 -6.4375 22.25 C-10.34340763 22.07245874 -13.12652394 22.04268263 -16.4375 24.25 Z " fill="#232E3B" transform="translate(82.4375,139.75)"/>
<path d="M0 0 C2.04845203 3.14115889 2.26031887 5.72356539 2.30859375 9.4296875 C2.33373047 10.47253906 2.35886719 11.51539063 2.38476562 12.58984375 C2.41979554 14.77207801 2.45107299 16.95437588 2.47851562 19.13671875 C2.62390793 24.88858001 2.81655124 29.1272011 6 34 C3.36 36.31 0.72 38.62 -2 41 C-6 39 -6 39 -7 37 C-7.556875 37.28875 -8.11375 37.5775 -8.6875 37.875 C-9.450625 38.24625 -10.21375 38.6175 -11 39 C-11.7425 39.37125 -12.485 39.7425 -13.25 40.125 C-18.29324677 41.72966943 -22.42248424 41.56552452 -27.3125 39.8125 C-30.44063702 37.70282619 -31.62345599 36.5178347 -33 33 C-33.55987602 28.72316931 -33.5000389 25.18430267 -31.8125 21.1875 C-26.04475991 14.22643438 -19.59189102 12.88881631 -11 12 C-10.957279 10.33388095 -10.95936168 8.66617115 -11 7 C-12.10075495 5.69676169 -12.10075495 5.69676169 -14.8125 5.625 C-15.864375 5.74875 -16.91625 5.8725 -18 6 C-18.598125 6.845625 -19.19625 7.69125 -19.8125 8.5625 C-20.534375 9.366875 -21.25625 10.17125 -22 11 C-25.09831481 11.15087446 -27.97706718 10.65238507 -31 10 C-32 7 -32 7 -30.875 4.0625 C-28.00298119 -0.62846406 -25.44154795 -2.49545822 -20.25 -4.3125 C-12.60627173 -5.9103415 -6.30820627 -4.50586162 0 0 Z M-18.375 21 C-20.95575901 24.17631878 -20.26265854 26.99445732 -20 31 C-17.14921909 31.76716851 -17.14921909 31.76716851 -14 32 C-11.91869363 30.49284711 -11.14386782 29.28773563 -10 27 C-9.95977609 24.6670134 -9.95679753 22.33293334 -10 20 C-13.14711179 19.7854242 -15.44617664 19.76681122 -18.375 21 Z " fill="#232E3A" transform="translate(189,142)"/>
<path d="M0 0 C5.70304474 5.70304474 8.08702143 11.93660001 8.375 20 C8.0888787 28.01139633 5.74869947 34.38499122 0 40 C-5.03889713 43.51550963 -10.04998884 43.82166821 -16 43 C-21.17226735 41.41237354 -24.37589933 38.11698529 -26.9921875 33.46484375 C-30.27786028 25.42895412 -31.19585678 16.17804399 -28 8 C-24.79257424 2.35570122 -21.22257262 -1.25272857 -15.1875 -3.75 C-9.519033 -4.3978248 -4.49677998 -3.52450323 0 0 Z M-14.75 7.125 C-18.54424785 12.81637178 -17.41433379 21.3991278 -16.3125 27.875 C-15.53694755 31.05421499 -15.34789681 31.74365498 -12.625 33.75 C-9.96655553 34.24533221 -9.96655553 34.24533221 -7.75 32.8125 C-3.6419748 28.55775961 -4.69561519 22.24547692 -4.765625 16.69921875 C-5.04038361 12.3626121 -5.829386 9.70813224 -8 6 C-11.56707395 5.70276602 -11.56707395 5.70276602 -14.75 7.125 Z " fill="#222D3A" transform="translate(262,141)"/>
<path d="M0 0 C4.78031705 0.63118749 8.55896879 2.62396133 12.8125 4.75 C43.68224028 19.63439691 78.04338334 20.98553889 110.44921875 10.18359375 C113.96203606 9.01265465 117.40613371 7.89071162 121 7 C121.99 7.495 121.99 7.495 123 8 C122.62828257 10.44495828 122.29604365 11.71318368 120.49609375 13.45703125 C115.5961776 16.68335175 110.53037594 19.29127404 105.1875 21.6875 C104.56093506 21.97278564 103.93437012 22.25807129 103.28881836 22.55200195 C92.18046649 27.34799325 81.48962466 28.51204935 69.5378418 28.44604492 C67.20075816 28.4375482 64.86614016 28.46637834 62.52929688 28.49804688 C48.84830849 28.56410373 36.75838722 25.9318684 24.375 19.875 C23.58230713 19.494646 22.78961426 19.11429199 21.97290039 18.72241211 C13.81166243 14.65623561 6.4628163 9.4628163 0 3 C0 2.01 0 1.02 0 0 Z " fill="#232D39" transform="translate(89,186)"/>
<path d="M0 0 C3.91258457 4.69059257 4.56349986 8.49992025 4.42578125 14.42578125 C4.42249313 15.21397751 4.41920502 16.00217377 4.41581726 16.81425476 C4.40544447 18.46910952 4.38557658 20.12392933 4.35668945 21.77856445 C4.3123347 24.32197877 4.29520775 26.86444863 4.28320312 29.40820312 C4.26978971 31.01824292 4.25486969 32.62827103 4.23828125 34.23828125 C4.23089432 35.00175369 4.22350739 35.76522614 4.21589661 36.55183411 C4.11835075 41.88164925 4.11835075 41.88164925 3 43 C1.00041636 43.04080783 -1.00045254 43.04254356 -3 43 C-3.33 41.68 -3.66 40.36 -4 39 C-4.94875 39.639375 -5.8975 40.27875 -6.875 40.9375 C-11.90356616 43.78769944 -17.35370118 44.72094121 -23.0546875 43.59375 C-26.24613258 42.44318611 -28.1446912 40.84417871 -30.4375 38.375 C-32.43547564 34.05937262 -32.82977514 30.6769144 -32 26 C-29.44555622 20.89111245 -26.48528829 18.3220059 -21.1875 16.3125 C-16.03541813 15.5764883 -11.04067784 15.73983054 -6 17 C-5.9071875 15.1128125 -5.9071875 15.1128125 -5.8125 13.1875 C-5.77769531 12.47980469 -5.74289062 11.77210938 -5.70703125 11.04296875 C-5.85963082 8.9412957 -5.85963082 8.9412957 -7.15625 7.25390625 C-9.74029272 5.49653822 -11.58635161 5.67058519 -14.6875 5.75 C-16.27884766 5.78867188 -16.27884766 5.78867188 -17.90234375 5.828125 C-21.64883101 6.03600071 -25.29210123 6.42955404 -29 7 C-29.3125 4.1875 -29.3125 4.1875 -29 1 C-21.61379679 -5.11999694 -7.90806798 -4.94254249 0 0 Z M-22 26 C-23.3290487 29.15649066 -23.14504787 30.56485639 -22.0625 33.8125 C-20.0641359 36.39254262 -20.0641359 36.39254262 -16.25 36.5 C-12.00343285 36.24835158 -8.77987439 34.8899372 -5 33 C-5 30.03 -5 27.06 -5 24 C-11.17194742 22.45701315 -16.95779486 21.56897124 -22 26 Z " fill="#232D39" transform="translate(357,140)"/>
<path d="M0 0 C1.20970459 0.00523682 2.41940918 0.01047363 3.66577148 0.01586914 C4.97094727 0.0190918 6.27612305 0.02231445 7.62084961 0.02563477 C9.00952213 0.03399138 10.39819401 0.04245634 11.78686523 0.05102539 C13.17944179 0.05603873 14.57202005 0.06060193 15.96459961 0.06469727 C19.38456394 0.07653105 22.80444367 0.09301659 26.22436523 0.11352539 C26.90687836 7.27589838 25.17346396 10.7100552 20.91186523 16.36352539 C20.16259766 17.40379883 20.16259766 17.40379883 19.39819336 18.46508789 C18.02577327 20.36284494 16.63160267 22.24150736 15.22436523 24.11352539 C14.61206055 24.93336914 13.99975586 25.75321289 13.36889648 26.59790039 C12.99120117 27.09805664 12.61350586 27.59821289 12.22436523 28.11352539 C13.22016602 28.27788086 13.22016602 28.27788086 14.23608398 28.44555664 C24.48854306 30.28650915 24.48854306 30.28650915 27.22436523 33.11352539 C27.6305388 36.15711929 27.51214684 39.06304037 27.22436523 42.11352539 C25.22436523 43.11352539 25.22436523 43.11352539 23.41186523 42.55493164 C22.68999023 42.26489258 21.96811523 41.97485352 21.22436523 41.67602539 C12.40066086 38.61243523 4.85031061 40.03020875 -3.77563477 43.11352539 C-5.96513192 40.92402824 -5.5257391 37.40881711 -5.52954102 34.50415039 C-4.05549834 27.87477712 0.73162037 22.92078413 4.94555664 17.75512695 C6.58131737 15.65530734 7.930295 13.43666855 9.22436523 11.11352539 C8.45350586 11.06454102 7.68264648 11.01555664 6.88842773 10.96508789 C5.88553711 10.89032227 4.88264648 10.81555664 3.84936523 10.73852539 C2.35276367 10.63411133 2.35276367 10.63411133 0.82592773 10.52758789 C-1.77563477 10.11352539 -1.77563477 10.11352539 -3.77563477 8.11352539 C-3.96313477 4.55102539 -3.96313477 4.55102539 -3.77563477 1.11352539 C-2.77563477 0.11352539 -2.77563477 0.11352539 0 0 Z " fill="#222D3A" transform="translate(203.775634765625,138.886474609375)"/>
<path d="M0 0 C0 1.98 0 3.96 0 6 C-1.93166016 5.98259766 -1.93166016 5.98259766 -3.90234375 5.96484375 C-5.58072772 5.9554673 -7.25911326 5.94636695 -8.9375 5.9375 C-9.78763672 5.92912109 -10.63777344 5.92074219 -11.51367188 5.91210938 C-12.32255859 5.90888672 -13.13144531 5.90566406 -13.96484375 5.90234375 C-14.7137085 5.89710693 -15.46257324 5.89187012 -16.23413086 5.88647461 C-18.02667739 5.80658248 -18.02667739 5.80658248 -19 7 C-19.04063832 8.66617115 -19.042721 10.33388095 -19 12 C-18.3709375 12.31453125 -17.741875 12.6290625 -17.09375 12.953125 C-15.30989393 13.84505303 -13.52741596 14.7397409 -11.74609375 15.63671875 C-10.06121066 16.47316854 -8.36752022 17.2924823 -6.66015625 18.08203125 C-5.96792969 18.40558594 -5.27570313 18.72914063 -4.5625 19.0625 C-3.94503906 19.34222656 -3.32757813 19.62195313 -2.69140625 19.91015625 C-0.46406767 21.3453236 0.65246556 22.71522518 2 25 C2.92900454 30.19468374 2.96142128 34.60156905 -0.0625 39 C-6.62915277 43.47091252 -12.17236402 44.91460997 -20 44 C-27.97211155 42.02788845 -27.97211155 42.02788845 -30 40 C-30.04063832 38.33382885 -30.042721 36.66611905 -30 35 C-27.8595752 34.31200631 -26.44389345 33.88484361 -24.23828125 34.45703125 C-21.43550219 35.13693751 -18.81992038 35.20713873 -15.9375 35.25 C-14.89464844 35.27578125 -13.85179687 35.3015625 -12.77734375 35.328125 C-9.99731524 35.2286343 -9.99731524 35.2286343 -8.140625 33.65234375 C-6.57750268 31.38795764 -6.78220128 29.68618419 -7 27 C-7.80050781 26.76216797 -7.80050781 26.76216797 -8.6171875 26.51953125 C-23.32142857 21.91491597 -23.32142857 21.91491597 -28.125 16.6875 C-29.84741871 11.39721396 -29.76687682 7.62577885 -27.4375 2.6875 C-20.2178846 -5.27258877 -8.96718364 -4.78249794 0 0 Z " fill="#232C37" transform="translate(444,140)"/>
<path d="M0 0 C2.31 0 4.62 0 7 0 C7 13.86 7 27.72 7 42 C3.535 42.495 3.535 42.495 0 43 C0 42.34 0 41.68 0 41 C-0.55816406 41.32097656 -1.11632812 41.64195312 -1.69140625 41.97265625 C-5.68924308 43.75172746 -9.7192543 43.68686195 -14 43 C-17.40721111 40.44459167 -19.39810348 37.90723456 -21 34 C-21.65542752 28.59653362 -21.91296559 22.90967982 -19.4375 17.9375 C-16.48643634 14.38108994 -14.45126601 13.20712299 -10 12 C-6.62296526 12.2214449 -4.02772025 12.48613987 -1 14 C-1.01160156 13.07316406 -1.02320313 12.14632813 -1.03515625 11.19140625 C-1.04417969 9.99386719 -1.05320313 8.79632813 -1.0625 7.5625 C-1.07410156 6.36753906 -1.08570313 5.17257812 -1.09765625 3.94140625 C-1 1 -1 1 0 0 Z M-10.63671875 20.2421875 C-13.09957635 23.41779186 -13.10300253 27.08590378 -13 31 C-12.15163476 34.05649286 -12.15163476 34.05649286 -10 36 C-6.38265938 37.05505768 -4.59002381 37.1966746 -1 36 C-1 30.72 -1 25.44 -1 20 C-4.18759212 18.40620394 -7.70079802 18.01397081 -10.63671875 20.2421875 Z " fill="#059392" transform="translate(255,263)"/>
<path d="M0 0 C0 1.65 0 3.3 0 5 C-1.98 5.66 -3.96 6.32 -6 7 C-6.33 8.98 -6.66 10.96 -7 13 C-0.73 13 5.54 13 12 13 C12 22.57 12 32.14 12 42 C9.69 42 7.38 42 5 42 C4.505 30.615 4.505 30.615 4 19 C-0.95 19.495 -0.95 19.495 -6 20 C-6.33 27.26 -6.66 34.52 -7 42 C-9 43 -9 43 -15 42 C-15.33 34.74 -15.66 27.48 -16 20 C-17.32 19.67 -18.64 19.34 -20 19 C-20 17.35 -20 15.7 -20 14 C-18.68 13.67 -17.36 13.34 -16 13 C-15.89042969 12.31292969 -15.78085938 11.62585938 -15.66796875 10.91796875 C-15.50941406 10.01691406 -15.35085937 9.11585938 -15.1875 8.1875 C-15.03667969 7.29417969 -14.88585937 6.40085937 -14.73046875 5.48046875 C-13.93736514 2.78730943 -13.17023693 1.72845842 -11 0 C-7.30992855 -1.58145919 -3.85364739 -0.66697743 0 0 Z " fill="#0A9091" transform="translate(183,263)"/>
<path d="M0 0 C2.97 0.33 5.94 0.66 9 1 C11.97 10.24 14.94 19.48 18 29 C20.50822918 20.58160848 20.50822918 20.58160848 22.99536133 12.15698242 C23.3127124 11.10873291 23.63006348 10.0604834 23.95703125 8.98046875 C24.27647705 7.90692139 24.59592285 6.83337402 24.92504883 5.72729492 C25.98070728 3.04894822 26.6408486 1.62894643 29 0 C32.6875 0.3125 32.6875 0.3125 36 1 C34.43025513 9.53903386 31.41027686 17.46428182 28.375 25.5625 C27.85363074 26.96659799 27.33279306 28.37089349 26.8125 29.77539062 C25.5477867 33.18589243 24.27590226 36.59366583 23 40 C19.7 40 16.4 40 13 40 C9.74386306 32.96918442 6.98639503 25.81540435 4.37084961 18.52294922 C3.68006461 16.6043488 2.97588072 14.69098226 2.27148438 12.77734375 C1.83513672 11.56433594 1.39878906 10.35132813 0.94921875 9.1015625 C0.55049561 8.00150879 0.15177246 6.90145508 -0.2590332 5.76806641 C-1 3 -1 3 0 0 Z " fill="#0B8A88" transform="translate(54,265)"/>
<path d="M0 0 C1.134375 0.020625 2.26875 0.04125 3.4375 0.0625 C3.4375 0.7225 3.4375 1.3825 3.4375 2.0625 C3.98535156 1.74152344 4.53320312 1.42054688 5.09765625 1.08984375 C9.37017335 -0.78606943 13.87559238 -0.62009655 18.4375 0.0625 C21.33433868 2.2640974 22.83047231 3.84844462 24.4375 7.0625 C25.40144722 20.48361132 25.40144722 20.48361132 21.4375 26.0625 C21.045625 26.660625 20.65375 27.25875 20.25 27.875 C17.26961003 29.82766929 13.9288712 30.19090419 10.4375 30.0625 C8.4575 29.4025 6.4775 28.7425 4.4375 28.0625 C4.4375 32.3525 4.4375 36.6425 4.4375 41.0625 C1.7975 41.0625 -0.8425 41.0625 -3.5625 41.0625 C-3.72971596 35.38436163 -3.89031538 29.70609025 -4.04467773 24.02758789 C-4.0981778 22.09426791 -4.15351308 20.16099784 -4.21069336 18.2277832 C-4.29238175 15.45535041 -4.36755352 12.68280742 -4.44140625 9.91015625 C-4.46844131 9.04036636 -4.49547638 8.17057648 -4.52333069 7.27442932 C-4.57528164 5.20439685 -4.57438571 3.13315016 -4.5625 1.0625 C-3.5625 0.0625 -3.5625 0.0625 0 0 Z M4.4375 7.0625 C4.13354994 9.66097505 4.0188692 11.96889107 4.0625 14.5625 C4.05089844 15.25214844 4.03929688 15.94179688 4.02734375 16.65234375 C4.00360192 18.89609087 4.00360192 18.89609087 4.4375 22.0625 C7.67903166 24.2235211 8.67442901 24.70497553 12.4375 24.0625 C15.00388215 21.91228793 16.22853188 20.22976637 16.82421875 16.90234375 C17.01834032 12.89272921 16.71299931 10.56248023 14.75 7 C12.60103622 4.86887145 12.60103622 4.86887145 9.875 4.625 C7.18944866 4.93971386 7.18944866 4.93971386 4.4375 7.0625 Z " fill="#232B38" transform="translate(60.5625,333.9375)"/>
<path d="M0 0 C3.40766001 1.70383 5.38497834 2.99360092 7.375 6.25 C8.21812331 9.95974258 8.19025768 13.19484631 8 17 C7 18 7 18 3.18359375 18.09765625 C1.60153318 18.09098089 0.01948841 18.07901875 -1.5625 18.0625 C-2.36880859 18.05798828 -3.17511719 18.05347656 -4.00585938 18.04882812 C-6.00393756 18.03700518 -8.00197783 18.01906914 -10 18 C-9.21869929 20.49552484 -9.21869929 20.49552484 -8 23 C-4.71480525 24.09506492 -2.26336585 24.09960608 1.1875 24.0625 C2.27417969 24.05347656 3.36085937 24.04445313 4.48046875 24.03515625 C5.31191406 24.02355469 6.14335937 24.01195312 7 24 C7 25.98 7 27.96 7 30 C1.79590065 32.68598676 -3.67796053 33.0133084 -9.25390625 31.3125 C-12.83529727 29.72956474 -14.6871213 28.45417876 -16.9375 25.1875 C-19.35090034 17.94729898 -19.24787876 12.86846493 -16 6 C-11.69406129 0.58285129 -6.87835961 -1.07143678 0 0 Z M-8 7 C-8.66 8.65 -9.32 10.3 -10 12 C-6.37 12 -2.74 12 1 12 C0.34 10.35 -0.32 8.7 -1 7 C-3.31 7 -5.62 7 -8 7 Z " fill="#0B8F8F" transform="translate(221,275)"/>
<path d="M0 0 C3.42679683 2.33645239 4.41872531 3.95513564 5.75 7.875 C6.02318146 10.63716809 5.93934407 13.08217498 5.75 15.875 C4.75 16.875 4.75 16.875 2.98413086 16.98852539 C2.23526611 16.98328857 1.48640137 16.97805176 0.71484375 16.97265625 C-0.09404297 16.96943359 -0.90292969 16.96621094 -1.73632812 16.96289062 C-2.58646484 16.95451172 -3.43660156 16.94613281 -4.3125 16.9375 C-5.16650391 16.93298828 -6.02050781 16.92847656 -6.90039062 16.92382812 C-9.01695663 16.91200373 -11.13348685 16.89406769 -13.25 16.875 C-11.38433512 20.50293998 -11.38433512 20.50293998 -8.25 22.875 C-5.71465172 22.94458074 -3.19550637 22.87224315 -0.66015625 22.8125 C1.75 22.875 1.75 22.875 4.75 23.875 C4.42 25.525 4.09 27.175 3.75 28.875 C-2.24922574 30.83393085 -7.29667011 31.97526016 -13.4375 29.6875 C-17.19732266 27.26450317 -19.60281843 24.87047652 -21 20.5625 C-21.6079805 14.02670964 -21.96895105 9.51754642 -18.25 3.875 C-12.66915626 -1.28728046 -7.3048115 -2.5285886 0 0 Z M-10.25 5.875 C-12.1854148 8.26556942 -12.1854148 8.26556942 -13.25 10.875 C-10.72946405 12.13526798 -9.3957902 11.79374445 -6.625 11.4375 C-5.80773437 11.33566406 -4.99046875 11.23382813 -4.1484375 11.12890625 C-3.52195312 11.04511719 -2.89546875 10.96132813 -2.25 10.875 C-2.74756092 8.11858584 -2.74756092 8.11858584 -4.25 5.875 C-7.16538029 5.37457854 -7.16538029 5.37457854 -10.25 5.875 Z " fill="#0A8D8B" transform="translate(114.25,276.125)"/>
<path d="M0 0 C0.71607422 -0.03738281 1.43214844 -0.07476562 2.16992188 -0.11328125 C5.62935415 -0.17099189 7.70351163 0.1219611 10.55078125 2.12890625 C12.9208872 7.21820353 12.48068227 12.15365657 12.3125 17.6875 C12.29445313 18.80962891 12.27640625 19.93175781 12.2578125 21.08789062 C12.21077856 23.85113447 12.14506317 26.61262698 12.0625 29.375 C9.0625 29.375 6.0625 29.375 3.0625 29.375 C2.4025 29.705 1.7425 30.035 1.0625 30.375 C-2.95088025 30.77788759 -6.66569523 30.88372191 -10.4375 29.375 C-12.73468667 26.31208443 -13.14110533 23.10534057 -12.9375 19.375 C-11.59798669 16.37704165 -10.8819025 14.84720125 -7.9375 13.375 C-5.9000237 13.14641886 -3.85709697 12.96475722 -1.8125 12.8125 C-0.71679688 12.72871094 0.37890625 12.64492188 1.5078125 12.55859375 C2.35085937 12.49800781 3.19390625 12.43742187 4.0625 12.375 C3.68345792 9.08424004 3.68345792 9.08424004 2.0625 6.375 C-0.12389453 6.30241054 -2.31250389 6.29126217 -4.5 6.3125 C-5.69753906 6.32152344 -6.89507812 6.33054687 -8.12890625 6.33984375 C-9.51916016 6.35724609 -9.51916016 6.35724609 -10.9375 6.375 C-10.9375 4.725 -10.9375 3.075 -10.9375 1.375 C-7.26998227 0.15249409 -3.82342374 0.07530468 0 0 Z M-4.9375 19.375 C-4.6075 21.025 -4.2775 22.675 -3.9375 24.375 C-1.6359589 25.15302187 -1.6359589 25.15302187 1.0625 25.375 C3.36754044 24.04346734 3.36754044 24.04346734 5.0625 22.375 C4.7325 20.725 4.4025 19.075 4.0625 17.375 C0.14746436 15.77998548 -1.60233376 17.05891233 -4.9375 19.375 Z " fill="#222A38" transform="translate(102.9375,333.625)"/>
<path d="M0 0 C3.3125 1.8125 3.3125 1.8125 5 5 C5.38137813 8.77140596 5.22963395 12.18807638 5 16 C-3.415 16.495 -3.415 16.495 -12 17 C-11.34 18.65 -10.68 20.3 -10 22 C-6.71480525 23.09506492 -4.26336585 23.09960608 -0.8125 23.0625 C0.27417969 23.05347656 1.36085937 23.04445313 2.48046875 23.03515625 C3.31191406 23.02355469 4.14335937 23.01195312 5 23 C5 24.65 5 26.3 5 28 C-0.61397408 30.54993695 -5.92070308 30.94763149 -12 30 C-15.5440959 28.03841212 -18.18220334 25.63559332 -20 22 C-20.9769867 8.39733909 -20.9769867 8.39733909 -17 3 C-12.19617996 -1.5509874 -6.21224 -0.79422309 0 0 Z M-13 9 C-12.67 9.99 -12.34 10.98 -12 12 C-8.7 12 -5.4 12 -2 12 C-1.67 11.01 -1.34 10.02 -1 9 C-2.02901574 6.7109211 -2.02901574 6.7109211 -4 5 C-8.48399396 4.08020637 -10.16430659 5.63917818 -13 9 Z " fill="#232935" transform="translate(224,334)"/>
<path d="M0 0 C1.98 0 3.96 0 6 0 C6.66 0.66 7.32 1.32 8 2 C8.54527344 1.67644531 9.09054688 1.35289062 9.65234375 1.01953125 C12.43681869 -0.18969996 14.53461742 -0.3001413 17.5625 -0.3125 C18.51253906 -0.32925781 19.46257812 -0.34601563 20.44140625 -0.36328125 C23 0 23 0 24.64160156 1.14892578 C26.5817081 3.79268707 26.34056797 5.72785549 26.29296875 8.98046875 C26.28330078 10.14384766 26.27363281 11.30722656 26.26367188 12.50585938 C26.23853516 13.72080078 26.21339844 14.93574219 26.1875 16.1875 C26.16719727 18.02731445 26.16719727 18.02731445 26.14648438 19.90429688 C26.11108741 22.93663664 26.0617076 25.96809996 26 29 C23.69 29 21.38 29 19 29 C18.98541748 28.40985107 18.97083496 27.81970215 18.95581055 27.21166992 C18.88131156 24.53628771 18.78466005 21.86215108 18.6875 19.1875 C18.66494141 18.25873047 18.64238281 17.32996094 18.61914062 16.37304688 C18.5659668 15.0340332 18.5659668 15.0340332 18.51171875 13.66796875 C18.48553467 12.84578857 18.45935059 12.0236084 18.43237305 11.17651367 C18.11807197 8.96651354 18.11807197 8.96651354 16.90551758 7.14575195 C14.35685733 5.34030241 14.35685733 5.34030241 8 7 C7.67 14.26 7.34 21.52 7 29 C4.69 29 2.38 29 0 29 C0 19.43 0 9.86 0 0 Z " fill="#252D39" transform="translate(170,334)"/>
<path d="M0 0 C2.31 0 4.62 0 7 0 C7.33 2.31 7.66 4.62 8 7 C10.31 7.33 12.62 7.66 15 8 C15 9.98 15 11.96 15 14 C12.69 14.33 10.38 14.66 8 15 C8 20.28 8 25.56 8 31 C10.31 31.33 12.62 31.66 15 32 C15 33.65 15 35.3 15 37 C13.06280622 37.05406122 11.12518079 37.09282025 9.1875 37.125 C8.10855469 37.14820313 7.02960938 37.17140625 5.91796875 37.1953125 C3 37 3 37 0 35 C-0.86419223 32.40742331 -1.17580932 30.65962293 -1.31640625 27.98828125 C-1.35830078 27.23095703 -1.40019531 26.47363281 -1.44335938 25.69335938 C-1.48267578 24.90767578 -1.52199219 24.12199219 -1.5625 23.3125 C-1.60568359 22.51521484 -1.64886719 21.71792969 -1.69335938 20.89648438 C-1.79927368 18.93118553 -1.90012551 16.96561504 -2 15 C-2.99 14.67 -3.98 14.34 -5 14 C-5 12.35 -5 10.7 -5 9 C-4.0409375 8.7215625 -4.0409375 8.7215625 -3.0625 8.4375 C-0.57873787 7.05753944 -0.57873787 7.05753944 -0.25 3.375 C-0.1675 2.26125 -0.085 1.1475 0 0 Z " fill="#222B36" transform="translate(149,326)"/>
<path d="M0 0 C0.33 0.99 0.66 1.98 1 3 C1.804375 2.2575 1.804375 2.2575 2.625 1.5 C5.6127712 -0.38701339 7.52743085 -0.30867281 11 0 C12 1 12 1 12.0625 4.0625 C12.041875 5.031875 12.02125 6.00125 12 7 C8.37 7.66 4.74 8.32 1 9 C1.16371094 9.83789062 1.32742187 10.67578125 1.49609375 11.5390625 C2.02987283 15.20517307 2.09743025 18.67239385 2.0625 22.375 C2.05347656 23.62023437 2.04445312 24.86546875 2.03515625 26.1484375 C2.02355469 27.08945312 2.01195312 28.03046875 2 29 C-1.3 29 -4.6 29 -8 29 C-8 19.76 -8 10.52 -8 1 C-5.29120665 -0.35439668 -2.99066732 -0.06501451 0 0 Z " fill="#0B9090" transform="translate(133,276)"/>
<path d="M0 0 C1.134375 0.020625 2.26875 0.04125 3.4375 0.0625 C3.7675 1.0525 4.0975 2.0425 4.4375 3.0625 C5.5203125 2.32 5.5203125 2.32 6.625 1.5625 C9.58598659 -0.01669285 11.15003029 -0.21928312 14.4375 0.0625 C14.4375 2.3725 14.4375 4.6825 14.4375 7.0625 C11.4675 7.7225 8.4975 8.3825 5.4375 9.0625 C5.1075 15.6625 4.7775 22.2625 4.4375 29.0625 C1.57572943 30.49338528 -0.49625773 29.66241697 -3.5625 29.0625 C-3.72979064 25.09342526 -3.89038226 21.12414279 -4.04467773 17.15454102 C-4.09815802 15.80322921 -4.15349194 14.45198948 -4.21069336 13.10083008 C-4.29243571 11.16247011 -4.36703323 9.22381296 -4.44140625 7.28515625 C-4.4885376 6.11734619 -4.53566895 4.94953613 -4.58422852 3.74633789 C-4.5510632 -0.35013785 -4.22162068 0.07406352 0 0 Z " fill="#202D37" transform="translate(127.5625,333.9375)"/>
<path d="M0 0 C2.31 0 4.62 0 7 0 C7.66 0.99 8.32 1.98 9 3 C9.804375 2.2575 9.804375 2.2575 10.625 1.5 C13.59358445 -0.37489544 15.55312427 -0.23501425 19 0 C19 2.31 19 4.62 19 7 C15.7 7.66 12.4 8.32 9 9 C8.67 15.6 8.34 22.2 8 29 C5.69 29 3.38 29 1 29 C0.67 19.43 0.34 9.86 0 0 Z " fill="#222E3D" transform="translate(236,334)"/>
<path d="M0 0 C0.55150266 8.54829121 -1.30833423 14.87838679 -6 22.0625 C-8.06160125 24.05967621 -9.17733562 24.69757167 -12 25 C-11.14249345 20.42108154 -9.90239454 15.99879433 -8.62109375 11.5234375 C-7.88050138 8.94761464 -7.88050138 8.94761464 -8 6 C-13.61 6 -19.22 6 -25 6 C-25 4.68 -25 3.36 -25 2 C-17.22877366 -2.06223195 -8.24477394 -4.39721277 0 0 Z " fill="#242D38" transform="translate(224,185)"/>
<path d="M0 0 C2.73835721 2.73835721 1.49754156 10.79245884 1.625 14.5 C1.6765625 15.77488281 1.728125 17.04976563 1.78125 18.36328125 C1.82507813 19.57371094 1.86890625 20.78414063 1.9140625 22.03125 C1.9548291 23.15080078 1.9955957 24.27035156 2.03759766 25.42382812 C2 28 2 28 1 29 C-1.97 29 -4.94 29 -8 29 C-8 19.76 -8 10.52 -8 1 C-5.26752652 -0.36623674 -3.01801098 -0.128426 0 0 Z " fill="#079291" transform="translate(157,276)"/>
<path d="M0 0 C3.32228721 2.26519583 4.41648974 4.10979455 5.75 7.875 C5.42 8.865 5.09 9.855 4.75 10.875 C4.41226563 10.3696875 4.07453125 9.864375 3.7265625 9.34375 C3.28054687 8.6940625 2.83453125 8.044375 2.375 7.375 C1.93414062 6.7253125 1.49328125 6.075625 1.0390625 5.40625 C0.61367187 4.9009375 0.18828125 4.395625 -0.25 3.875 C-0.91 3.875 -1.57 3.875 -2.25 3.875 C-1.92 6.515 -1.59 9.155 -1.25 11.875 C-3.89 11.875 -6.53 11.875 -9.25 11.875 C-9.25 11.545 -9.25 11.215 -9.25 10.875 C-6.94 10.875 -4.63 10.875 -2.25 10.875 C-2.91 9.555 -3.57 8.235 -4.25 6.875 C-6.23 6.875 -8.21 6.875 -10.25 6.875 C-11.45628008 9.20714148 -12.4154738 11.37142139 -13.25 13.875 C-13.91 10.905 -14.57 7.935 -15.25 4.875 C-13.6 4.875 -11.95 4.875 -10.25 4.875 C-10.25 4.215 -10.25 3.555 -10.25 2.875 C-9.59 2.875 -8.93 2.875 -8.25 2.875 C-8.25 2.215 -8.25 1.555 -8.25 0.875 C-9.36375 1.2875 -10.4775 1.7 -11.625 2.125 C-12.56472656 2.47304688 -12.56472656 2.47304688 -13.5234375 2.828125 C-15.86990595 4.25087058 -16.32831742 5.28063422 -17.25 7.875 C-17.69733527 10.47064911 -18.07389989 13.01382034 -18.375 15.625 C-18.50455078 16.67107422 -18.50455078 16.67107422 -18.63671875 17.73828125 C-18.84771846 19.44972332 -19.04975501 21.16226629 -19.25 22.875 C-22.0956159 18.60657615 -21.75004005 14.8832136 -21.25 9.875 C-19.58282118 5.13670231 -17.39637955 2.6738062 -13.25 -0.125 C-8.53428001 -1.69690666 -4.70181501 -1.62755135 0 0 Z " fill="#118883" transform="translate(114.25,276.125)"/>
<path d="M0 0 C3 0.125 3 0.125 4 1.125 C4.40190029 3.01129113 4.74657353 4.90992056 5.0625 6.8125 C5.23910156 7.84761719 5.41570312 8.88273437 5.59765625 9.94921875 C5.99014566 13.04721769 6.07013684 16.00624863 6 19.125 C6.66 19.125 7.32 19.125 8 19.125 C8.33 21.435 8.66 23.745 9 26.125 C8.34 26.455 7.68 26.785 7 27.125 C3.6443794 24.8879196 3.80721959 24.69982962 3 21.125 C2.34 20.795 1.68 20.465 1 20.125 C0.22901101 17.90222421 -0.44326675 15.64473708 -1.0625 13.375 C-1.40410156 12.14265625 -1.74570312 10.9103125 -2.09765625 9.640625 C-3.6015625 3.78125 -3.6015625 3.78125 -4 1.125 C-3 0.125 -3 0.125 0 0 Z " fill="#079190" transform="translate(60,266.875)"/>
<path d="M0 0 C2.97 0.33 5.94 0.66 9 1 C9 1.33 9 1.66 9 2 C7.02 2.33 5.04 2.66 3 3 C3.79768561 7.32918697 5.03138463 11.41324701 6.37890625 15.59765625 C7 18 7 18 7 22 C7.99 22.33 8.98 22.66 10 23 C10.6875 25.0625 10.6875 25.0625 11 27 C11.99 27 12.98 27 14 27 C14 25.02 14 23.04 14 21 C13.34 21 12.68 21 12 21 C9.70387244 11.58997722 9.70387244 11.58997722 10 7 C12.44910524 10.67365787 13.40934541 14.22864938 14.625 18.4375 C14.96917969 19.5831543 14.96917969 19.5831543 15.3203125 20.75195312 C15.536875 21.49251953 15.7534375 22.23308594 15.9765625 22.99609375 C16.17330566 23.66825928 16.37004883 24.3404248 16.57275391 25.03295898 C17 27 17 27 17 31 C15.68 31 14.36 31 13 31 C12.67 32.32 12.34 33.64 12 35 C12.66 35 13.32 35 14 35 C14.33 36.65 14.66 38.3 15 40 C14.01 39.67 13.02 39.34 12 39 C10.89672852 36.78198242 10.89672852 36.78198242 9.87890625 33.85546875 C9.50056641 32.78490234 9.12222656 31.71433594 8.73242188 30.61132812 C8.34634766 29.48146484 7.96027344 28.35160156 7.5625 27.1875 C7.18029297 26.10017578 6.79808594 25.01285156 6.40429688 23.89257812 C5.25225833 20.60076001 4.12621135 17.30072925 3 14 C2.60022949 12.86771973 2.20045898 11.73543945 1.78857422 10.56884766 C1.41361816 9.49038574 1.03866211 8.41192383 0.65234375 7.30078125 C0.31066162 6.32923096 -0.03102051 5.35768066 -0.38305664 4.35668945 C-1 2 -1 2 0 0 Z " fill="#138681" transform="translate(54,265)"/>
<path d="M0 0 C0.66 0.33 1.32 0.66 2 1 C2 2.32 2 3.64 2 5 C2.66 5.33 3.32 5.66 4 6 C4.02698422 8.43757413 4.04683099 10.87484915 4.0625 13.3125 C4.07087891 14.00279297 4.07925781 14.69308594 4.08789062 15.40429688 C4.10307906 18.5483025 4.00193327 20.99420019 3 24 C-0.55353929 25.1845131 -3.27013478 25.26641894 -7 25 C-8.75 23.625 -8.75 23.625 -10 22 C-10.99 21.34 -11.98 20.68 -13 20 C-12.855625 19.18015625 -12.71125 18.3603125 -12.5625 17.515625 C-12.376875 16.43796875 -12.19125 15.3603125 -12 14.25 C-11.7215625 12.64898437 -11.7215625 12.64898437 -11.4375 11.015625 C-10.90428357 7.84810626 -10.90428357 7.84810626 -11 4 C-10.34 4 -9.68 4 -9 4 C-9 4.66 -9 5.32 -9 6 C-8.01 5.67 -7.02 5.34 -6 5 C-6 5.66 -6 6.32 -6 7 C-6.66 7 -7.32 7 -8 7 C-8.22304441 8.74818591 -8.4278645 10.49870323 -8.625 12.25 C-8.74101562 13.22453125 -8.85703125 14.1990625 -8.9765625 15.203125 C-9.00143059 18.17071708 -8.71736093 19.59902938 -7 22 C-3.9000132 22.79148599 -1.19474755 23 2 23 C2 17.72 2 12.44 2 7 C1.34 7 0.68 7 0 7 C0 5.35 0 3.7 0 2 C-1.98 2.33 -3.96 2.66 -6 3 C-6 2.34 -6 1.68 -6 1 C-10.43458973 2.3937282 -12.87378374 4.60582235 -16 8 C-16 5 -16 5 -13.6875 2.375 C-8.96209431 -1.80093991 -5.84241829 -0.92736798 0 0 Z " fill="#138888" transform="translate(252,276)"/>
<path d="M0 0 C0.33 1.32 0.66 2.64 1 4 C-1.475 3.01 -1.475 3.01 -4 2 C-5.21643292 2.99483202 -5.21643292 2.99483202 -5.11352539 4.94946289 C-5.10828857 5.7821167 -5.10305176 6.61477051 -5.09765625 7.47265625 C-5.09443359 8.37177734 -5.09121094 9.27089844 -5.08789062 10.19726562 C-5.07951172 11.14279297 -5.07113281 12.08832031 -5.0625 13.0625 C-5.05798828 14.01189453 -5.05347656 14.96128906 -5.04882812 15.93945312 C-5.0370011 18.29303065 -5.02052025 20.64648477 -5 23 C-3.35 23.33 -1.7 23.66 0 24 C0 18.72 0 13.44 0 8 C1.32 8.33 2.64 8.66 4 9 C3.01 9 2.02 9 1 9 C1.16371094 9.83789062 1.32742187 10.67578125 1.49609375 11.5390625 C2.02987283 15.20517307 2.09743025 18.67239385 2.0625 22.375 C2.05347656 23.62023437 2.04445312 24.86546875 2.03515625 26.1484375 C2.02355469 27.08945312 2.01195312 28.03046875 2 29 C-1.3 29 -4.6 29 -8 29 C-8 19.76 -8 10.52 -8 1 C-5.29120665 -0.35439668 -2.99066732 -0.06501451 0 0 Z " fill="#0C7F7B" transform="translate(133,276)"/>
<path d="M0 0 C2.31 0 4.62 0 7 0 C7 13.86 7 27.72 7 42 C3.535 42.495 3.535 42.495 0 43 C0 42.34 0 41.68 0 41 C1.65 41 3.3 41 5 41 C4.34 28.46 3.68 15.92 3 3 C2.34 5.31 1.68 7.62 1 10 C0.34 10.99 -0.32 11.98 -1 13 C-1.02686553 11.02090602 -1.04633375 9.04171029 -1.0625 7.0625 C-1.07410156 5.96035156 -1.08570313 4.85820312 -1.09765625 3.72265625 C-1 1 -1 1 0 0 Z " fill="#177F80" transform="translate(255,263)"/>
<path d="M0 0 C2.31 0 4.62 0 7 0 C7.66 0.99 8.32 1.98 9 3 C9.804375 2.2575 9.804375 2.2575 10.625 1.5 C13.59358445 -0.37489544 15.55312427 -0.23501425 19 0 C19 2.31 19 4.62 19 7 C15.37 7.66 11.74 8.32 8 9 C8 8.01 8 7.02 8 6 C6.68 6 5.36 6 4 6 C3.19347492 8.88167681 2.82484994 11.56031547 2.68359375 14.546875 C2.64169922 15.39121094 2.59980469 16.23554688 2.55664062 17.10546875 C2.51732422 17.97816406 2.47800781 18.85085938 2.4375 19.75 C2.39431641 20.63816406 2.35113281 21.52632813 2.30664062 22.44140625 C2.20086385 24.62745963 2.09877454 26.81362089 2 29 C1.67 29 1.34 29 1 29 C0.67 19.43 0.34 9.86 0 0 Z " fill="#202631" transform="translate(236,334)"/>
<path d="M0 0 C1.39456452 0.00667256 2.78911118 0.01863093 4.18359375 0.03515625 C4.89451172 0.03966797 5.60542969 0.04417969 6.33789062 0.04882812 C8.09899388 0.06064761 9.86005411 0.07858362 11.62109375 0.09765625 C11.77785015 7.81355442 11.29562476 15.41282086 10.62109375 23.09765625 C12.60109375 23.09765625 14.58109375 23.09765625 16.62109375 23.09765625 C16.62109375 23.42765625 16.62109375 23.75765625 16.62109375 24.09765625 C14.31109375 24.09765625 12.00109375 24.09765625 9.62109375 24.09765625 C9.12609375 12.71265625 9.12609375 12.71265625 8.62109375 1.09765625 C5.32109375 1.42765625 2.02109375 1.75765625 -1.37890625 2.09765625 C-1.70890625 9.35765625 -2.03890625 16.61765625 -2.37890625 24.09765625 C-4.37890625 25.09765625 -4.37890625 25.09765625 -10.37890625 24.09765625 C-10.37890625 16.83765625 -10.37890625 9.57765625 -10.37890625 2.09765625 C-10.04890625 2.09765625 -9.71890625 2.09765625 -9.37890625 2.09765625 C-9.37890625 9.02765625 -9.37890625 15.95765625 -9.37890625 23.09765625 C-7.39890625 23.09765625 -5.41890625 23.09765625 -3.37890625 23.09765625 C-3.43220093 22.10584351 -3.43220093 22.10584351 -3.48657227 21.09399414 C-3.64356872 18.11630337 -3.79259259 15.13826668 -3.94140625 12.16015625 C-3.99748047 11.11923828 -4.05355469 10.07832031 -4.11132812 9.00585938 C-4.15966797 8.01650391 -4.20800781 7.02714844 -4.2578125 6.0078125 C-4.30494385 5.09136963 -4.3520752 4.17492676 -4.40063477 3.23071289 C-4.36422846 -0.34324083 -3.6625934 0.1058553 0 0 Z " fill="#18807F" transform="translate(178.37890625,280.90234375)"/>
<path d="M0 0 C2.73835721 2.73835721 1.49754156 10.79245884 1.625 14.5 C1.6765625 15.77488281 1.728125 17.04976563 1.78125 18.36328125 C1.82507813 19.57371094 1.86890625 20.78414063 1.9140625 22.03125 C1.9548291 23.15080078 1.9955957 24.27035156 2.03759766 25.42382812 C2 28 2 28 1 29 C-1.97 29 -4.94 29 -8 29 C-8 19.76 -8 10.52 -8 1 C-5.26752652 -0.36623674 -3.01801098 -0.128426 0 0 Z M-5 2 C-5 2.99 -5 3.98 -5 5 C-5.16298584 5.6280957 -5.32597168 6.25619141 -5.49389648 6.90332031 C-6.04687046 9.19417437 -6.1135642 11.19249838 -6.09765625 13.546875 C-6.09443359 14.39121094 -6.09121094 15.23554688 -6.08789062 16.10546875 C-6.07951172 16.97816406 -6.07113281 17.85085938 -6.0625 18.75 C-6.05798828 19.63816406 -6.05347656 20.52632813 -6.04882812 21.44140625 C-6.037074 23.62767329 -6.02064249 25.81380179 -6 28 C-4.02 28 -2.04 28 0 28 C0 19.42 0 10.84 0 2 C-1.65 2 -3.3 2 -5 2 Z " fill="#157D7B" transform="translate(157,276)"/>
<path d="M0 0 C3.34232313 2.94442752 4.45817099 4.9318049 4.76953125 9.375 C4.80841175 11.35437112 4.72386414 13.33521712 4.625 15.3125 C3.625 16.3125 3.625 16.3125 0.46484375 16.41015625 C-0.82292969 16.39855469 -2.11070312 16.38695312 -3.4375 16.375 C-4.72785156 16.36597656 -6.01820313 16.35695313 -7.34765625 16.34765625 C-8.34667969 16.33605469 -9.34570312 16.32445312 -10.375 16.3125 C-10.375 15.9825 -10.375 15.6525 -10.375 15.3125 C-5.755 14.9825 -1.135 14.6525 3.625 14.3125 C2.5147689 6.94629522 2.5147689 6.94629522 -1.875 1.5625 C-6.78542532 1.21175533 -11.50330499 1.67103126 -16.375 2.3125 C-16.375 3.9625 -16.375 5.6125 -16.375 7.3125 C-17.035 7.3125 -17.695 7.3125 -18.375 7.3125 C-19.035 8.6325 -19.695 9.9525 -20.375 11.3125 C-21.375 8.3125 -21.375 8.3125 -19.8125 4.8125 C-15.28267967 -2.50014511 -7.30991368 -3.65495684 0 0 Z " fill="#148480" transform="translate(224.375,276.6875)"/>
<path d="M0 0 C0 1.65 0 3.3 0 5 C-2.31 5.66 -4.62 6.32 -7 7 C-7.33 5.68 -7.66 4.36 -8 3 C-8.66 3 -9.32 3 -10 3 C-10.33 3.99 -10.66 4.98 -11 6 C-11.96989861 8.34685311 -12.98902044 10.67035144 -14 13 C-14.33 13 -14.66 13 -15 13 C-15.48695652 5.8173913 -15.48695652 5.8173913 -13.25 2.0625 C-8.90534141 -1.9201037 -5.64288713 -0.97665354 0 0 Z " fill="#138685" transform="translate(183,263)"/>
<path d="M0 0 C1.32 0 2.64 0 4 0 C4.14285714 7.42857143 4.14285714 7.42857143 3 11 C1.02 11 -0.96 11 -3 11 C-3.33 9.35 -3.66 7.7 -4 6 C-4.66 6 -5.32 6 -6 6 C-5.67 4.35 -5.34 2.7 -5 1 C-3.35 1.33 -1.7 1.66 0 2 C0 1.34 0 0.68 0 0 Z " fill="#088E8E" transform="translate(72,294)"/>
<path d="M0 0 C0.66 0.33 1.32 0.66 2 1 C1.65682018 6.43170818 1.24409332 10.45826935 -2 15 C-2.68096422 16.32608822 -3.35330586 17.65686601 -4 19 C-5.32 19 -6.64 19 -8 19 C-6.41730959 12.79271068 -4.87341526 6.74683051 -2 1 C-1.34 0.67 -0.68 0.34 0 0 Z " fill="#059595" transform="translate(85,266)"/>
<path d="M0 0 C2.4375 0.9375 2.4375 0.9375 3.875 3.3125 C4.060625 4.17875 4.24625 5.045 4.4375 5.9375 C3.4475 7.4225 3.4475 7.4225 2.4375 8.9375 C-1.0625 9.25 -1.0625 9.25 -4.5625 8.9375 C-5.2225 8.2775 -5.8825 7.6175 -6.5625 6.9375 C-6.375 4.4375 -6.375 4.4375 -5.5625 1.9375 C-2.5625 -0.0625 -2.5625 -0.0625 0 0 Z " fill="#14766F" transform="translate(192.5625,262.0625)"/>
<path d="M0 0 C0 0.66 0 1.32 0 2 C-0.66 2 -1.32 2 -2 2 C-2 2.66 -2 3.32 -2 4 C-3.32 4.33 -4.64 4.66 -6 5 C-5.6596875 6.8253125 -5.6596875 6.8253125 -5.3125 8.6875 C-4.88023657 11.97620691 -4.93936847 12.87346463 -6.4375 16 C-6.953125 16.66 -7.46875 17.32 -8 18 C-8.99 17.67 -9.98 17.34 -11 17 C-10.37236881 5.85413578 -10.37236881 5.85413578 -7 2 C-4.51541298 0.72740665 -2.78967541 0 0 0 Z " fill="#079396" transform="translate(106,277)"/>
<path d="M0 0 C0.66 0 1.32 0 2 0 C2.20625 0.78375 2.4125 1.5675 2.625 2.375 C3.78521905 5.21242288 3.78521905 5.21242288 6.625 6.3125 C11.58971161 7.32383014 16.116486 7.627838 21 6 C19.50256881 4.50256881 18.01175761 4.66797307 15.9375 4.4375 C14.638125 4.293125 13.33875 4.14875 12 4 C12 3.67 12 3.34 12 3 C17.94 2.505 17.94 2.505 24 2 C24 3.98 24 5.96 24 8 C19.41716285 10.3653353 15.04231407 10.69520277 10 10 C5.51823903 8.44744458 2.65755129 6.98632694 0 3 C0 2.01 0 1.02 0 0 Z " fill="#1A7C79" transform="translate(204,297)"/>
<path d="M0 0 C2.3125 1.5 2.3125 1.5 3.3125 3.9375 C3.3125 6.5 3.3125 6.5 2.25 8.375 C-0.59471851 10.02677204 -2.58942587 9.25730701 -5.6875 8.5 C-6.0175 6.52 -6.3475 4.54 -6.6875 2.5 C-4.24851931 0.15135193 -3.42280805 -0.6368015 0 0 Z " fill="#1D7777" transform="translate(155.6875,262.5)"/>
<path d="M0 0 C2.97 0.33 5.94 0.66 9 1 C9 1.33 9 1.66 9 2 C7.02 2.33 5.04 2.66 3 3 C3.79768561 7.32918697 5.03138463 11.41324701 6.37890625 15.59765625 C7 18 7 18 7 22 C7.66 22.33 8.32 22.66 9 23 C9.625 26.0625 9.625 26.0625 10 29 C9.34 29 8.68 29 8 29 C6.69040355 25.19461421 5.39059646 21.38604217 4.09985352 17.57421875 C3.65918902 16.27740145 3.21583879 14.98149361 2.76977539 13.68652344 C2.12985714 11.82727262 1.50031709 9.96445996 0.87109375 8.1015625 C0.48880615 6.98088379 0.10651855 5.86020508 -0.28735352 4.70556641 C-1 2 -1 2 0 0 Z " fill="#1D7F7B" transform="translate(54,265)"/>
<path d="M0 0 C0 2.31 0 4.62 0 7 C-3.3 7.33 -6.6 7.66 -10 8 C-10 5 -10 5 -9 2 C-5.99208089 -0.04108797 -3.57804656 -0.19878036 0 0 Z " fill="#26282B" transform="translate(142,334)"/>
<path d="M0 0 C0.7734375 0.495 0.7734375 0.495 1.5625 1 C-0.80620215 2.18435107 -2.12366938 2.03902202 -4.75 1.9375 C-8.4324284 1.90789849 -11.20778252 2.04259547 -14.4375 4 C-16.81575483 7.58054602 -17.0816618 11.58010805 -17.5625 15.75 C-17.69205078 16.79607422 -17.69205078 16.79607422 -17.82421875 17.86328125 C-18.03521846 19.57472332 -18.23725501 21.28726629 -18.4375 23 C-21.2831159 18.73157615 -20.93754005 15.0082136 -20.4375 10 C-18.77032118 5.26170231 -16.58387955 2.7988062 -12.4375 0 C-8.17949462 -1.41933513 -4.20838462 -1.72651677 0 0 Z " fill="#1C7F7F" transform="translate(113.4375,276)"/>
<path d="M0 0 C0.78375 0.825 1.5675 1.65 2.375 2.5 C6.00792723 5.58668758 9.12766109 5.38922106 13.73046875 5.078125 C16 5 16 5 19 6 C18.67 7.65 18.34 9.3 18 11 C16.68 11.33 15.36 11.66 14 12 C14.99 10.35 15.98 8.7 17 7 C15.700625 7.5259375 15.700625 7.5259375 14.375 8.0625 C9.00276044 9.55478877 4.99031249 8.20160845 0 6 C0 4.02 0 2.04 0 0 Z " fill="#078A83" transform="translate(100,294)"/>
<path d="M0 0 C1.32 0 2.64 0 4 0 C2.36231563 9.00726401 -0.86979697 17.42639358 -4 26 C-4.33 26 -4.66 26 -5 26 C-4.68203737 19.73942539 -4.31208324 15.38213527 -1 10 C-0.44808632 6.67820179 -0.18922142 3.36031136 0 0 Z " fill="#198580" transform="translate(86,266)"/>
<path d="M0 0 C0.66 0 1.32 0 2 0 C2 0.99 2 1.98 2 3 C2.66 3.33 3.32 3.66 4 4 C4.845625 4.53625 5.69125 5.0725 6.5625 5.625 C11.03802517 7.41521007 14.3512249 6.85744074 19 6 C18.1875 7.9375 18.1875 7.9375 17 10 C13.52176885 11.15941038 11.54104422 10.70820884 8 10 C8 9.34 8 8.68 8 8 C6.68 8.33 5.36 8.66 4 9 C0 4.5 0 4.5 0 0 Z " fill="#0B9390" transform="translate(98,295)"/>
<path d="M0 0 C2 2 2 2 2.1953125 4.6015625 C2.17210937 5.59929687 2.14890625 6.59703125 2.125 7.625 C2.10695312 8.62789063 2.08890625 9.63078125 2.0703125 10.6640625 C2.03550781 11.82035156 2.03550781 11.82035156 2 13 C0.68 13.33 -0.64 13.66 -2 14 C-2.33 9.71 -2.66 5.42 -3 1 C-2.01 0.67 -1.02 0.34 0 0 Z " fill="#03958F" transform="translate(130,284)"/>
<path d="M0 0 C0.33 0 0.66 0 1 0 C1.02578125 0.74765625 1.0515625 1.4953125 1.078125 2.265625 C1.25643155 8.36994772 1.25643155 8.36994772 4.0625 13.5625 C5.0215625 14.2740625 5.0215625 14.2740625 6 15 C6 15.66 6 16.32 6 17 C9.99521305 18.99760653 13.56120428 19.10088172 18 19 C17.67 19.66 17.34 20.32 17 21 C8.04347826 21.7826087 8.04347826 21.7826087 4 18.75 C0.66781437 14.16824476 -0.24969252 11.485856 -0.125 5.75 C-0.10695312 4.67234375 -0.08890625 3.5946875 -0.0703125 2.484375 C-0.04710937 1.66453125 -0.02390625 0.8446875 0 0 Z " fill="#1B817F" transform="translate(234,285)"/>
<path d="M0 0 C1.42020201 0.22906484 2.83845901 0.47251758 4.25 0.75 C4.25 2.07 4.25 3.39 4.25 4.75 C1.28 4.75 -1.69 4.75 -4.75 4.75 C-4.75 4.09 -4.75 3.43 -4.75 2.75 C-5.41 2.75 -6.07 2.75 -6.75 2.75 C-6.42 4.07 -6.09 5.39 -5.75 6.75 C-6.41 6.75 -7.07 6.75 -7.75 6.75 C-8.08 5.76 -8.41 4.77 -8.75 3.75 C-6.12072175 -0.02244271 -4.38091087 -0.51743042 0 0 Z " fill="#109393" transform="translate(247.75,277.25)"/>
<path d="M0 0 C0.99 0.33 1.98 0.66 3 1 C2.01 1.66 1.02 2.32 0 3 C-1.08885464 5.67813829 -1.08885464 5.67813829 -2 9 C-2.46765713 10.56598332 -2.9474209 12.12838826 -3.4375 13.6875 C-3.66308594 14.43386719 -3.88867188 15.18023437 -4.12109375 15.94921875 C-5.07996168 18.18657724 -6.18382155 19.40641724 -8 21 C-7.3808361 18.415141 -6.75492318 15.83223828 -6.125 13.25 C-5.95097656 12.52039063 -5.77695313 11.79078125 -5.59765625 11.0390625 C-3.83619115 3.86272321 -3.83619115 3.86272321 -2 1 C-1.34 0.67 -0.68 0.34 0 0 Z " fill="#10827D" transform="translate(83,265)"/>
<path d="M0 0 C0.33 1.32 0.66 2.64 1 4 C-1.475 3.01 -1.475 3.01 -4 2 C-6.10316798 4.10316798 -5.44449765 8.48785568 -5.62109375 11.3359375 C-6 14 -6 14 -8 17 C-8 11.72 -8 6.44 -8 1 C-5.29120665 -0.35439668 -2.99066732 -0.06501451 0 0 Z " fill="#0F5A8A" transform="translate(133,276)"/>
<path d="M0 0 C1.65 0 3.3 0 5 0 C5 1.65 5 3.3 5 5 C3.06280622 5.05406122 1.12518079 5.09282025 -0.8125 5.125 C-1.89144531 5.14820313 -2.97039062 5.17140625 -4.08203125 5.1953125 C-7 5 -7 5 -10 3 C-10 2.34 -10 1.68 -10 1 C-9.34 1 -8.68 1 -8 1 C-8 1.66 -8 2.32 -8 3 C-5.69 3 -3.38 3 -1 3 C-0.67 2.01 -0.34 1.02 0 0 Z " fill="#23272D" transform="translate(159,358)"/>
<path d="M0 0 C0.33 0 0.66 0 1 0 C1 5.61 1 11.22 1 17 C2.32 16.67 3.64 16.34 5 16 C5.66 13.69 6.32 11.38 7 9 C7.33 9 7.66 9 8 9 C8 11.97 8 14.94 8 18 C5.36 18 2.72 18 0 18 C0 12.06 0 6.12 0 0 Z " fill="#20232B" transform="translate(57,357)"/>
<path d="M0 0 C1.134375 0.020625 2.26875 0.04125 3.4375 0.0625 C3.7675 1.3825 4.0975 2.7025 4.4375 4.0625 C3.81875 3.876875 3.2 3.69125 2.5625 3.5 C0.39589822 2.82563824 0.39589822 2.82563824 -1.5625 4.0625 C-2.03204261 7.10831269 -2.03204261 7.10831269 -2.1875 10.625 C-2.26226562 11.82253906 -2.33703125 13.02007812 -2.4140625 14.25390625 C-2.46304688 15.18074219 -2.51203125 16.10757812 -2.5625 17.0625 C-2.8925 17.0625 -3.2225 17.0625 -3.5625 17.0625 C-3.75636492 14.41698944 -3.94288267 11.77132217 -4.125 9.125 C-4.18107422 8.37025391 -4.23714844 7.61550781 -4.29492188 6.83789062 C-4.42426157 4.91504042 -4.49766912 2.98860452 -4.5625 1.0625 C-3.5625 0.0625 -3.5625 0.0625 0 0 Z " fill="#202431" transform="translate(60.5625,333.9375)"/>
<path d="M0 0 C1.32 0 2.64 0 4 0 C4 4.62 4 9.24 4 14 C3.34 14 2.68 14 2 14 C1.875 6.25 1.875 6.25 3 4 C1.35 3.67 -0.3 3.34 -2 3 C-1.34 2.01 -0.68 1.02 0 0 Z " fill="#1F2832" transform="translate(187,146)"/>
<path d="M0 0 C1.258125 -0.020625 2.51625 -0.04125 3.8125 -0.0625 C4.52019531 -0.07410156 5.22789063 -0.08570313 5.95703125 -0.09765625 C8 0 8 0 11 1 C11 1.99 11 2.98 11 4 C7.37 3.67 3.74 3.34 0 3 C0 2.01 0 1.02 0 0 Z " fill="#262F3E" transform="translate(98,334)"/>
<path d="M0 0 C1.99954746 -0.04254356 4.00041636 -0.04080783 6 0 C7 1 7 1 7.0625 4.0625 C7.041875 5.031875 7.02125 6.00125 7 7 C4.69 7.33 2.38 7.66 0 8 C0 7.34 0 6.68 0 6 C1.65 5.67 3.3 5.34 5 5 C4.67 4.01 4.34 3.02 4 2 C3.34 1.67 2.68 1.34 2 1 C1.67 1.99 1.34 2.98 1 4 C0.34 3.67 -0.32 3.34 -1 3 C-0.67 2.01 -0.34 1.02 0 0 Z " fill="#137E7D" transform="translate(138,276)"/>
<path d="M0 0 C2.625 0.375 2.625 0.375 5 1 C5.33 1.99 5.66 2.98 6 4 C4 6 4 6 1.375 6.125 C0.59125 6.08375 -0.1925 6.0425 -1 6 C-1.625 4.125 -1.625 4.125 -2 2 C-1.34 1.34 -0.68 0.68 0 0 Z " fill="#13908E" transform="translate(190,264)"/>
<path d="M0 0 C1.051875 0.99 1.051875 0.99 2.125 2 C5.43460229 4.30233203 7.06225823 4.36630156 11 4 C11 4.66 11 5.32 11 6 C12.98 6 14.96 6 17 6 C17.33 6.66 17.66 7.32 18 8 C11.23721448 8.40576713 6.54006407 7.95005339 1.125 3.4375 C0 2 0 2 0 0 Z " fill="#1B7B77" transform="translate(95,299)"/>
<path d="M0 0 C0 0.33 0 0.66 0 1 C-0.56847656 1.00257813 -1.13695312 1.00515625 -1.72265625 1.0078125 C-8.24386457 1.33441726 -11.53889116 3.30938074 -16 8 C-16 5 -16 5 -13.6875 2.375 C-8.95838101 -1.80422143 -5.83891316 -0.86147899 0 0 Z " fill="#1E7E7F" transform="translate(252,276)"/>
<path d="M0 0 C4.6959013 -0.32385526 7.16309076 -0.41084636 11.4375 1.6875 C14.22067989 4.19915015 14.79570164 5.3226295 15 9 C14.54625 8.21625 14.0925 7.4325 13.625 6.625 C10.27512607 3.27512607 7.72452586 3.06725015 3.14453125 2.45703125 C2.43683594 2.30621094 1.72914063 2.15539062 1 2 C0.67 1.34 0.34 0.68 0 0 Z " fill="#1E7E7A" transform="translate(213,275)"/>
<path d="M0 0 C1.32 0 2.64 0 4 0 C4 1.98 4 3.96 4 6 C2.35 6 0.7 6 -1 6 C-1.042721 4.33388095 -1.04063832 2.66617115 -1 1 C-0.67 0.67 -0.34 0.34 0 0 Z " fill="#0E8E90" transform="translate(152,264)"/>
<path d="M0 0 C-0.33 1.65 -0.66 3.3 -1 5 C-2.32 5.33 -3.64 5.66 -5 6 C-4.01 4.35 -3.02 2.7 -2 1 C-5.63 1 -9.26 1 -13 1 C-13 0.67 -13 0.34 -13 0 C-4.57142857 -1.28571429 -4.57142857 -1.28571429 0 0 Z " fill="#1B817F" transform="translate(119,300)"/>
<path d="M0 0 C1.65 0.33 3.3 0.66 5 1 C5 1.99 5 2.98 5 4 C4.34 4 3.68 4 3 4 C2.67 5.65 2.34 7.3 2 9 C1.67 7.68 1.34 6.36 1 5 C0.34 5 -0.32 5 -1 5 C-0.67 3.35 -0.34 1.7 0 0 Z " fill="#0F9691" transform="translate(67,295)"/>
<path d="M0 0 C2.97 0.33 5.94 0.66 9 1 C9 1.33 9 1.66 9 2 C7.02 2.33 5.04 2.66 3 3 C2.67 4.98 2.34 6.96 2 9 C0.25165733 6.377486 -0.51529754 5.00515522 -1 2 C-0.67 1.34 -0.34 0.68 0 0 Z " fill="#186D65" transform="translate(54,265)"/>
<path d="M0 0 C1.33333333 0 2.66666667 0 4 0 C4 2.97 4 5.94 4 9 C3.01 8.67 2.02 8.34 1 8 C0.67 5.36 0.34 2.72 0 0 Z " fill="#202830" transform="translate(220,185)"/>
<path d="M0 0 C1.32 0 2.64 0 4 0 C4 1.98 4 3.96 4 6 C2.02 6 0.04 6 -2 6 C-1.67 5.34 -1.34 4.68 -1 4 C-0.34 4 0.32 4 1 4 C0.67 2.68 0.34 1.36 0 0 Z " fill="#222827" transform="translate(160,334)"/>
<path d="M0 0 C4 1 4 1 6 3 C6 3.99 6 4.98 6 6 C5.34 6 4.68 6 4 6 C3.67 6.99 3.34 7.98 3 9 C2.01 6.03 1.02 3.06 0 0 Z " fill="#069392" transform="translate(111,279)"/>
<path d="M0 0 C6.0546875 -0.1953125 6.0546875 -0.1953125 8 0 C10 2 10 2 10 5 C9.01 5.66 8.02 6.32 7 7 C6.938125 6.071875 6.938125 6.071875 6.875 5.125 C6.58625 4.42375 6.2975 3.7225 6 3 C3.00384054 1.6954344 3.00384054 1.6954344 0 1 C0 0.67 0 0.34 0 0 Z " fill="#1E2734" transform="translate(101,349)"/>
<path d="M0 0 C1.0625 1.8125 1.0625 1.8125 2 4 C1.67 4.99 1.34 5.98 1 7 C-0.65 7 -2.3 7 -4 7 C-4 4 -4 4 -2 1.8125 C-1.34 1.214375 -0.68 0.61625 0 0 Z " fill="#05929B" transform="translate(74,297)"/>
<path d="M0 0 C1.32 0.33 2.64 0.66 4 1 C4 1.66 4 2.32 4 3 C4.66 3.33 5.32 3.66 6 4 C3 6 3 6 0 6 C0 4.02 0 2.04 0 0 Z " fill="#048F9C" transform="translate(127,279)"/>
<path d="M0 0 C-1 1 -1 1 -3.28515625 1.09765625 C-4.65994141 1.08025391 -4.65994141 1.08025391 -6.0625 1.0625 C-6.98160156 1.05347656 -7.90070313 1.04445312 -8.84765625 1.03515625 C-9.55792969 1.02355469 -10.26820313 1.01195312 -11 1 C-11 0.34 -11 -0.32 -11 -1 C-3.57142857 -2.42857143 -3.57142857 -2.42857143 0 0 Z " fill="#1C2229" transform="translate(435,183)"/>
<path d="M0 0 C0.33 0 0.66 0 1 0 C1 2.31 1 4.62 1 7 C0.01 7.495 0.01 7.495 -1 8 C-3.125 7.0625 -3.125 7.0625 -5 6 C-4.01 5.67 -3.02 5.34 -2 5 C-1.33820153 3.01954441 -1.33820153 3.01954441 -1 1 C-0.67 0.67 -0.34 0.34 0 0 Z " fill="#1E252E" transform="translate(131,356)"/>
<path d="M0 0 C0.99 0.33 1.98 0.66 3 1 C3.33 3.31 3.66 5.62 4 8 C3.01 8.33 2.02 8.66 1 9 C1.020625 7.88625 1.04125 6.7725 1.0625 5.625 C1.26380718 2.16784079 1.26380718 2.16784079 0 0 Z " fill="#232E42" transform="translate(223,336)"/>
<path d="M0 0 C1.4540625 0.0309375 1.4540625 0.0309375 2.9375 0.0625 C2.9375 0.7225 2.9375 1.3825 2.9375 2.0625 C0.9575 3.0525 -1.0225 4.0425 -3.0625 5.0625 C-3.625 3.125 -3.625 3.125 -4.0625 1.0625 C-3.0625 0.0625 -3.0625 0.0625 0 0 Z " fill="#21272D" transform="translate(127.0625,333.9375)"/>
<path d="M0 0 C0.33 0.99 0.66 1.98 1 3 C0.01 3.99 -0.98 4.98 -2 6 C-2.99 5.67 -3.98 5.34 -5 5 C-4.67 3.68 -4.34 2.36 -4 1 C-2.68 0.67 -1.36 0.34 0 0 Z " fill="#0A9592" transform="translate(212,278)"/>
<path d="M0 0 C1.64666203 0.1135629 3.29236082 0.24117381 4.9375 0.375 C5.85402344 0.44460937 6.77054687 0.51421875 7.71484375 0.5859375 C8.84599609 0.79089844 8.84599609 0.79089844 10 1 C10.33 1.66 10.66 2.32 11 3 C6.09432112 3.28301994 3.75471067 3.16492205 0 0 Z " fill="#242A30" transform="translate(69,137)"/>
<path d="M0 0 C3.3 0 6.6 0 10 0 C9.67 0.66 9.34 1.32 9 2 C5.65506316 2.99444068 3.31044803 3.10348268 0 2 C0 1.34 0 0.68 0 0 Z " fill="#13949A" transform="translate(216,302)"/>
<path d="M0 0 C0.103125 0.639375 0.20625 1.27875 0.3125 1.9375 C0.539375 2.618125 0.76625 3.29875 1 4 C1.99 4.33 2.98 4.66 4 5 C5.6875 7.5625 5.6875 7.5625 7 10 C4.13904359 8.7175023 1.88634082 7.54656011 0 5 C-0.1875 2.3125 -0.1875 2.3125 0 0 Z " fill="#138D87" transform="translate(95,294)"/>
<path d="M0 0 C0.66 0.33 1.32 0.66 2 1 C1.67 2.65 1.34 4.3 1 6 C0.67 5.34 0.34 4.68 0 4 C-0.99 4 -1.98 4 -3 4 C-2.67 3.01 -2.34 2.02 -2 1 C-1.34 0.67 -0.68 0.34 0 0 Z " fill="#109198" transform="translate(85,266)"/>
</svg>
